Coordinates
version=1
nRows=14
nColumns=40
inDegrees=yes

Units are S.I. units (second, meters, Newtons, ...)
Angles are in degrees.

endheader
time	pelvis_tilt	pelvis_list	pelvis_rotation	pelvis_tx	pelvis_ty	pelvis_tz	hip_flexion_r	hip_adduction_r	hip_rotation_r	knee_angle_r	knee_angle_r_beta	ankle_angle_r	subtalar_angle_r	mtp_angle_r	hip_flexion_l	hip_adduction_l	hip_rotation_l	knee_angle_l	knee_angle_l_beta	ankle_angle_l	subtalar_angle_l	mtp_angle_l	lumbar_extension	lumbar_bending	lumbar_rotation	arm_flex_r	arm_add_r	arm_rot_r	elbow_flex_r	pro_sup_r	wrist_flex_r	wrist_dev_r	arm_flex_l	arm_add_l	arm_rot_l	elbow_flex_l	pro_sup_l	wrist_flex_l	wrist_dev_l
      0.38000000	     -7.20901543	     -1.24674670	      1.38290010	     -0.63948619	      0.95726729	      1.06444321	     28.92962412	     -9.99356978	    -19.10769611	    -42.06033669	     -0.73409136	      1.62934722	    -12.26107819	     15.48949941	      2.12683411	     -3.70027162	     12.31697335	     -9.79880913	     -0.17102148	      7.98883540	      5.14758508	     -6.33073145	      1.50381390	     -0.06122597	    -10.16458705	     -8.54464437	    -10.65915008	    -11.00285685	     22.65390272	     89.95437384	      0.00000000	      0.00000000	      3.04211461	     11.54544145	      4.12047179	     23.87347443	     89.95437384	      0.00000000	      0.00000000
      0.39000000	     -7.08391065	     -1.49378969	      2.39120428	     -0.62663799	      0.95550218	      1.06412234	     29.30098876	     -9.93689717	    -19.85022569	    -39.11347168	     -0.68265886	      1.73881629	    -11.11551665	     15.21169375	      1.02702346	     -3.36107748	     11.83534446	     -9.59676420	     -0.16749513	      8.44051330	      4.47991609	     -6.74215807	      1.21597045	      0.20999746	    -11.05277069	     -9.22675667	    -10.40394623	    -11.29342551	     21.57532557	     89.95437384	      0.00000000	      0.00000000	      3.95974768	     11.59392283	      2.89933966	     25.83688328	     89.95437384	      0.00000000	      0.00000000
      0.40000000	     -6.93036304	     -1.66696903	      3.39561036	     -0.61376564	      0.95351358	      1.06396384	     29.54300772	     -9.94723734	    -20.58575462	    -35.96897309	     -0.62777701	      1.83167098	     -9.87440642	     14.91049961	     -0.03655385	     -3.03563582	     11.41436643	     -9.51106464	     -0.16599939	      8.90489139	      3.79818377	     -7.23525884	      0.89467649	      0.38225781	    -11.96929017	     -9.85518632	    -10.12039228	    -11.65786999	     20.50963685	     89.95437384	      0.00000000	      0.00000000	      4.79569854	     11.78489667	      1.59114066	     27.88433770	     89.95437384	      0.00000000	      0.00000000
      0.41000000	     -6.75667310	     -1.73734171	      4.26559994	     -0.60070511	      0.95129088	      1.06408212	     29.72412105	    -10.00786869	    -21.20793449	    -32.70586157	     -0.57082497	      1.78376177	     -8.53302625	     14.63486026	     -1.14789758	     -2.75550795	     11.30448779	     -9.38323708	     -0.16376838	      9.29824969	      2.90926607	     -7.82025879	      0.56846450	      0.45337206	    -12.71553516	    -10.49435470	     -9.84651627	    -12.15397945	     19.49108378	     89.95437384	      0.00000000	      0.00000000	      5.55478192	     12.04489367	      0.20792440	     30.04436646	     89.95437384	      0.00000000	      0.00000000
      0.42000000	     -6.88799188	     -1.63253031	      4.98849715	     -0.58792766	      0.94841823	      1.06439985	     30.30290085	    -10.19143543	    -21.42439775	    -29.48965082	     -0.51469150	      1.60663479	     -7.40741274	     14.47015446	     -1.90150091	     -2.70098532	     11.05905008	     -9.32827948	     -0.16280919	      9.69154084	      2.26707746	     -8.16493391	      0.54772555	      0.29886360	    -13.40576793	    -11.09352784	     -9.61940215	    -12.36314913	     18.50816130	     89.95437384	      0.00000000	      0.00000000	      6.17482478	     12.31481512	     -0.70930531	     32.38978686	     89.95437384	      0.00000000	      0.00000000
      0.43000000	     -6.42586228	     -1.76480369	      5.74738892	     -0.57413980	      0.94615186	      1.06511305	     29.95468704	    -10.11384998	    -22.26645872	    -26.00842488	     -0.45393265	      1.30836046	     -6.13767159	     11.51260928	     -3.23263611	     -2.08859280	     12.06591778	     -9.40278772	     -0.16410960	      8.85637674	      0.33775365	    -14.13036494	     -0.03730149	      0.44261006	    -13.94014315	    -11.73323602	     -9.29161266	    -13.58964230	     17.56832798	     89.95437384	      0.00000000	      0.00000000	      6.89956644	     12.73878651	     -2.19391753	     34.73953690	     89.95437384	      0.00000000	      0.00000000
      0.44000000	     -6.75002564	     -1.34644242	      6.29378501	     -0.56111572	      0.94268635	      1.06568253	     30.76398923	    -10.59963982	    -22.20809822	    -23.00525142	     -0.40151738	      1.28826769	     -5.10241901	     11.38766630	     -3.86093427	     -2.37343347	     11.95994413	     -9.30313503	     -0.16237034	      9.21733460	     -0.08451322	    -14.04898325	      0.17761228	     -0.07993183	    -14.48231500	    -12.44813762	     -9.12259537	    -13.63357236	     16.84506935	     89.95437384	      0.00000000	      0.00000000	      7.41990959	     13.00584414	     -2.70134371	     36.95822215	     89.95437384	      0.00000000	      0.00000000
      0.45000000	     -6.20053614	     -1.33683343	      6.84219228	     -0.54713348	      0.94049323	      1.06657834	     30.34814245	    -10.63991623	    -23.08213394	    -19.81124818	     -0.34577151	      1.34221269	     -3.34663060	     11.14424051	     -5.56980833	     -2.02971651	     12.16361911	     -8.97478087	     -0.15663948	      9.41288792	     -0.85953058	    -14.28809581	     -0.53328331	     -0.04805535	    -14.89343094	    -12.83400370	     -8.91442230	    -14.65076599	     15.73977058	     89.95437384	      0.00000000	      0.00000000	      7.99145190	     13.51763673	     -3.98417821	     39.49127002	     89.95437384	      0.00000000	      0.00000000
      0.46000000	     -5.93539095	     -1.18139312	      7.21808442	     -0.53317742	      0.93786285	      1.06765459	     30.36603745	    -10.83184225	    -23.81492069	    -17.02141954	     -0.29707981	      1.63117713	     -0.72328281	     10.40040861	     -6.92909394	     -1.81780285	     12.88780398	     -8.75125460	     -0.15273821	      9.35061686	     -2.30415924	    -14.78389241	     -0.92244640	     -0.17057950	    -15.10657955	    -13.37614883	     -8.70345800	    -15.90740231	     14.93978963	     89.95437384	      0.00000000	      0.00000000	      8.54319363	     13.84146556	     -4.63659185	     41.81899627	     89.95437384	      0.00000000	      0.00000000
      0.47000000	     -6.30486455	     -0.82887806	      7.44301004	     -0.51977296	      0.93427806	      1.06892547	     31.19093136	    -11.12940862	    -23.65247118	    -14.47719579	     -0.25267473	      1.44358231	      0.88839287	     10.26711403	     -7.56639182	     -1.97960617	     12.98414633	     -8.61768974	     -0.15040706	      9.48308105	     -2.82106690	    -14.94974312	     -0.63104468	     -0.61492982	    -15.35762814	    -13.94209385	     -8.64165453	    -16.17080675	     14.25593939	     89.95437384	      0.00000000	      0.00000000	      8.83463426	     14.20984135	     -5.00751723	     44.17095920	     89.95437384	      0.00000000	      0.00000000
      0.48000000	     -5.83336895	     -0.90025600	      7.64810857	     -0.50482493	      0.93184105	      1.07062437	     30.87329941	    -11.05960043	    -25.21297416	    -12.07037437	     -0.21066777	     -0.33161704	      4.62748450	     -0.58498733	     -9.02030086	     -1.27685748	     14.65250736	     -8.71345428	     -0.15207847	      8.75771154	     -5.58949379	    -17.45573176	     -1.10980572	     -0.46933628	    -15.38979639	    -14.46659558	     -8.58154269	    -17.13966624	     13.50579811	     89.95437384	      0.00000000	      0.00000000	      9.23670586	     14.52336518	     -5.52410869	     46.40034596	     89.95437384	      0.00000000	      0.00000000
      0.49000000	     -5.77056955	     -0.73907629	      7.81834318	     -0.49033566	      0.92895222	      1.07221673	     31.21041369	    -11.25914072	    -26.17148303	    -10.59598602	     -0.18493484	     -0.66546143	      7.70686100	     -0.85675914	    -10.08841132	     -1.07969579	     14.85388725	     -8.73388564	     -0.15243506	      8.61001704	     -6.14717395	    -17.58208328	     -1.18608453	     -0.63592806	    -15.46972024	    -14.79925188	     -8.48185281	    -18.33104417	     12.59616041	     89.95437384	      0.00000000	      0.00000000	      9.51278124	     14.79676858	     -5.77547205	     48.54422245	     89.95437384	      0.00000000	      0.00000000
      0.50000000	     -5.91442046	     -0.49747717	      7.86774225	     -0.47564471	      0.92576281	      1.07393948	     31.90573828	    -11.42536740	    -26.02524154	     -9.95627468	     -0.17376977	     -1.04968490	      8.79791108	     -0.89332021	    -10.84985553	     -1.01505123	     14.85965981	     -8.96895520	     -0.15653780	      8.60677085	     -6.37668031	    -17.55700568	     -0.99610231	     -0.91966430	    -15.47354287	    -15.29477987	     -8.53249014	    -18.55332017	     12.00788848	     89.95437384	      0.00000000	      0.00000000	      9.58618585	     15.11061291	     -5.89261158	     50.70700543	     89.95437384	      0.00000000	      0.00000000
      0.51000000	     -5.89962111	     -0.37609916	      7.98270285	     -0.46024209	      0.92294358	      1.07560451	     32.52634189	    -11.57539055	    -25.73577162	    -10.40655411	     -0.18162863	     -1.46749791	      9.33515960	     -0.96555285	    -11.70581009	     -0.74455353	     14.86216763	     -9.40661984	     -0.16417649	      8.51919339	     -6.54488687	    -17.40660070	     -0.86539904	     -1.04523403	    -15.53062836	    -15.78402465	     -8.62825111	    -18.75025048	     11.44594148	     89.95437384	      0.00000000	      0.00000000	      9.56434290	     15.31815264	     -5.85415675	     52.66411842	     89.95437384	      0.00000000	      0.00000000
